<svg xmlns="http://www.w3.org/2000/svg" viewBox="0 0 1024 1024" style="enable-background:new 0 0 1024 1024" xml:space="preserve"><path style="fill:#5ab1e4" d="M-.4 0h1024.1v1024.1H-.4z"/><path d="M859.2 351.2c0-94.3-76.4-170.7-170.7-170.7H347.1c-43.7 0-87.4 16.7-120.7 50-66.7 66.7-66.7 174.7 0 241.4l60.8 60.8c-64.7 24.3-110.8 86.7-110.8 159.9 0 94.3 76.4 170.7 170.7 170.7h341.4c43.7 0 87.4-16.7 120.7-50 66.7-66.7 66.7-174.7 0-241.4l-60.8-60.8c64.7-24.3 110.8-86.7 110.8-159.9zm-586 415.2c-19.7-19.7-30.6-46-30.6-73.9 0-27.9 10.9-54.1 30.6-73.9 18.7-18.7 43.2-29.4 69.5-30.5L551.5 797H347.1c-27.9 0-54.2-10.8-73.9-30.6zm489.1-147.7c19.7 19.7 30.6 46 30.6 73.9 0 27.9-10.9 54.1-30.6 73.9-19.7 19.7-46 30.6-73.9 30.6-27.9 0-54.1-10.9-73.9-30.6L273.2 425c-19.7-19.7-30.6-46-30.6-73.9 0-27.9 10.9-54.1 30.6-73.9 19.7-19.7 46-30.6 73.9-30.6 27.9 0 54.1 10.9 73.9 30.6l341.3 341.5zm0-193.7c-18.7 18.7-43.2 29.4-69.5 30.5L484 246.7h204.5c27.9 0 54.1 10.9 73.9 30.6 19.7 19.7 30.6 46 30.6 73.9-.1 27.9-10.9 54.1-30.7 73.8z" style="fill:#fff"/></svg>