<svg version="1.1" id="Layer_1" xmlns="http://www.w3.org/2000/svg" xmlns:xlink="http://www.w3.org/1999/xlink" x="0px" y="0px"
	 viewBox="0 0 32 32" style="enable-background:new 0 0 32 32;" xml:space="preserve">
<style type="text/css">
	.st0{fill:#ccc;}
</style>
<g>
	<g>
		<g>
			<path class="st0" d="M12.2,24.4C5.5,24.4,0,18.9,0,12.2S5.5,0,12.2,0s12.2,5.5,12.2,12.2S18.9,24.4,12.2,24.4z M12.2,1.9
				C6.5,1.9,1.9,6.5,1.9,12.2s4.6,10.3,10.3,10.3s10.3-4.6,10.3-10.3S17.9,1.9,12.2,1.9z"/>
		</g>
		<g>
			<path class="st0" d="M7.4,17l-1.8-0.8v-0.3h2.2c0,0,1.1-1.5,1.7-2.2c0.6-0.7,1.3-1.6,1.3-1.6l-6-2.7L5.1,9l7.7,1c0,0,2.2-2.3,3-3
				c0.3-0.3,1.5-1,1.9-0.5l0.1,0.1c0.5,0.5-0.2,1.6-0.5,1.9c-0.7,0.8-3,3-3,3l1.1,7.7L15,19.6l-2.7-6c0,0-0.9,0.8-1.6,1.3
				c-0.7,0.6-2.2,1.7-2.2,1.7v2.2H8.2L7.4,17L7.4,17z"/>
		</g>
		<g>
			<g>
				<path class="st0" d="M12.2,32c-1.2,0-2.5-0.1-3.7-0.4C8,31.5,7.7,31,7.8,30.5c0.1-0.5,0.6-0.9,1.1-0.8c2.2,0.4,4.4,0.4,6.6,0
					c0.5-0.1,1,0.2,1.1,0.8c0.1,0.5-0.2,1-0.8,1.1C14.7,31.9,13.4,32,12.2,32z"/>
			</g>
			<g>
				<path class="st0" d="M12.2,28.2c-1.7,0-3.3-0.3-4.9-0.8c-0.5-0.2-0.8-0.7-0.6-1.2c0.2-0.5,0.7-0.8,1.2-0.6
					c2.8,0.9,5.8,0.9,8.6,0c0.5-0.2,1.1,0.1,1.2,0.6c0.2,0.5-0.1,1.1-0.6,1.2C15.5,27.9,13.9,28.2,12.2,28.2z"/>
			</g>
		</g>
	</g>
</g>
</svg>
