<svg xmlns="http://www.w3.org/2000/svg" width="24" height="24" viewBox="0 0 24 24" class="logo_logo-primary__4q3rv"><title>Workable, recruiting software</title><g fill="none" fill-rule="evenodd"><path fill="#00756A" d="M26.402 13.22c1.362-2.404 2.057-4.544 2.031-6.198-.032-2.03-.84-3.542-2.03-4.544C22.82-.532 15.764 1.074 15.86 7.117c.035 2.28 1.142 5.231 4.021 8.79 0 0 1.605-1.437 1.957-2.726-7.643-10.387 8.423-10.953.43.564 0 0-.924 1.503-2.1 2.51-2.493 2.35-4.75 3.093-6.718 2.77-6.833-1.12-7.923-11.316-8.429-17.378H.004L0 1.849v1.133c.262 12.03 8.775 28.765 22.38 15.602 1.347-1.35 2.114-2.425 2.114-2.425a31.085 31.085 0 0 0 1.908-2.938M37.963 7.992c-.917 7.064-5.009 13.032-11.179 9.746a9.77 9.77 0 0 1-.382.492 12.462 12.462 0 0 1-1.976 1.872.275.275 0 0 0-.055-.023c.68.427 1.358.767 2.031 1.026 7.62 2.945 14.571-4.337 15.241-13.442l-3.58-.16a3.583 3.583 0 0 0-.1.489"></path></g></svg>
